<svg width="512" height="512" viewBox="0 0 512 512" fill="none" xmlns="http://www.w3.org/2000/svg">
  <rect width="512" height="512" rx="80" fill="#1A1917" />
  <path
    d="M376.373 172.461C367.111 167.316 356.819 164.571 345.842 164.571C330.062 164.571 315.998 170.06 304.334 180.351C292.328 190.986 285.124 205.393 282.723 223.917H280.665C279.292 205.736 273.118 191.329 261.797 180.694C250.134 170.06 236.412 164.571 219.946 164.571C204.167 164.571 190.445 170.06 178.782 180.351C166.775 190.986 159.571 205.393 157.17 223.917H155.112L153.397 170.06H106.057V347.069H155.112V254.791C155.112 238.668 158.542 225.976 165.403 216.714C172.264 207.794 182.212 202.992 194.905 202.992C206.225 202.992 215.144 207.108 222.005 214.998C228.522 223.231 231.953 234.209 231.953 247.93V347.069H280.665V254.791C280.665 238.668 284.095 225.976 290.956 216.714C297.817 207.794 307.765 202.992 320.457 202.992C332.121 202.992 341.04 207.108 347.557 214.998C354.075 222.888 357.505 233.866 357.505 247.93V347.069H406.217V229.406C406.217 216.37 403.473 204.707 397.984 194.759C392.496 185.154 385.292 177.607 376.373 172.461Z"
    fill="white" />
</svg>